<?xml version="1.0" encoding="UTF-8"?>
<svg id="Camada_2" xmlns="http://www.w3.org/2000/svg" version="1.1" viewBox="0 0 282.5 50.2">
  <!-- Generator: Adobe Illustrator 29.1.0, SVG Export Plug-In . SVG Version: 2.1.0 Build 142)  -->
  <defs>
    <style>
      .st0 {
        fill: #fff;
        fill-rule: evenodd;
      }
    </style>
  </defs>
  <g id="Camada_1-2">
    <path class="st0" d="M34.1,34.2c3.5,0,8.2-.5,10.3-1s3.5-1,4-1.5C51.9,16.9,43.6.2,26.8.2h-10.9v13.5h9.3c11.2,0,13.4,14.5,9,20.5h0Z"/>
    <path class="st0" d="M48.4,18C46,8.2,38.4.2,26.8.2h-10.9v13.5h9.3c8.6,0,20.7,1.8,23.3,4.3Z"/>
    <path class="st0" d="M0,0h13.7c0,8.3,0,23.8,0,32.1s1.7,3.6,3.6,3.6c3.7.1,14.8.3,18.6.2h.7s.4,0,.4,0h1c0,0,.4,0,.4,0h.5s.3,0,.3,0h.7c0,0,.4,0,.4,0h1.3c0-.1.5-.2.5-.2h.3s1-.2,1-.2h.2s.3,0,.3,0h.3c0,0,.2-.1.2-.1h.1s.3,0,.3,0h.2s.2,0,.2,0h0s.4-.1.4-.1h.2s0,0,0,0l.4-.2h0s.1,0,.1,0h.2c0,0,.3-.2.3-.2h0s0,0,0,0h0s0,0,0,0h0s0,0,0,0h.2c0-.1,0-.1,0-.1h0s0,0,0,0h0s0,0,0,0h0s0,0,0,0h0s.1-.1.1-.1h0s0,0,0,0h0s0,0,0,0h0s0,0,0,0h0s0,0,0,0h0s0,0,0,0h0s0,0,0,0h0s0,0,0,0h0c0,0,0,.1,0,.2h0c0,0,0,.1,0,.1h0s0,0,0,0h0v.2h0v.2h0c0,.1,0,.2,0,.2h0s0,0,0,0h0v.2h0c0,0,0,0,0,0h0s0,0,0,0h0s0,0,0,0h0c0,.1,0,.1,0,.1h0s0,0,0,0h0s0,0,0,0h0s0,0,0,0h0s0,0,0,0h0s0,0,0,0h0s0,.2,0,.2h0c0,0,0,.2,0,.2h0c0,0,0,.2,0,.2h0s0,.2,0,.2h0c0,0,0,0,0,0h0s0,0,0,0h0s0,0,0,0h0s0,0,0,0h0s0,0,0,0h0s0,0,0,0h0s0,.1,0,.1h0s0,0,0,0h0s0,0,0,0h0s0,0,0,0h0s0,0,0,0h0c0,0,0,0,0,0h0s0,0,0,0h0s0,0,0,0h0s0,0,0,0h0s0,0,0,0h0s0,0,0,0h0c0,.1,0,.1,0,.1h0s0,0,0,0h0s0,0,0,0h0s0,0,0,0h0c0,0,0,0,0,0h0s0,0,0,0h0c0,.1,0,.1,0,.1h0v.2h0c0,0,0,.1,0,.1h0v.2h0c0,0,0,.2,0,.2h0v.2h0c0,0,0,0,0,0h0s0,.1,0,.1h0v.2h0s0,0,0,0h0s0,0,0,0h0c0,0,0,0,0,0h0v.2h0s0,0,0,0h0s0,.1,0,.1h0c0,0,0,0,0,0h0s0,0,0,0h0c0,.1,0,.1,0,.1h0s0,0,0,0h0s0,0,0,0h0s0,0,0,0h0s0,0,0,0v.2h-.1s0,0,0,0h0s0,0,0,0h0s0,0,0,0h0c0,.2-2.7,2.8-3,3.1-2.5,2.1-5.4,3.7-8.5,4.7-3.6,1-9.8.9-15.1.9C6.9,49.3,0,40.3,0,32.1V0Z"/>
    <path class="st0" d="M66.2,29.1V7.4h-4.1v21.6c0,6,4.9,10.8,10.9,10.8v-4.1c-3.7,0-6.8-3-6.8-6.7h0ZM91,29.1c0,3.7-3,6.7-6.8,6.7s-2.2-.3-3.1-.8l12.1-12.2c-1.9-2.8-5.1-4.6-8.9-4.6-5.9,0-10.7,4.8-10.7,10.9s4.8,10.7,10.7,10.7,10.8-4.8,10.8-10.7h-4.1ZM77.6,29.1c0-3.9,2.9-6.9,6.7-6.9s2.2.3,3.1.7l-9.1,9.2c-.4-.9-.7-2-.7-3h0ZM101.7,29.1V7.4h-4.1v21.6c0,6,4.9,10.8,10.8,10.8v-4.1c-3.7,0-6.8-3-6.8-6.7h0ZM113.7,29.1V7.4h-4.1v21.6c0,6,4.9,10.8,10.8,10.8v-4.1c-3.7,0-6.8-3-6.8-6.7h0ZM145.9,35.7c-2-1-3.3-3.4-3.3-5.8v-.9c0-6-4.8-10.8-10.8-10.8s-10.8,4.8-10.8,10.8,4.8,10.9,10.8,10.9,6.6-1.6,8.6-4.2c1.3,1.9,3.1,3.8,5.5,4.2v-4.1h0ZM138.5,29c0,3.8-2.9,6.8-6.7,6.8s-6.7-3-6.7-6.8,3-6.7,6.7-6.7,6.7,3,6.7,6.7h0ZM179.5,7.3v13.2c-1.8-1.5-4.1-2.4-6.7-2.4-6,0-10.8,4.8-10.8,10.8s4.8,10.9,10.8,10.9,10.8-4.8,10.8-10.9V7.3h-4.1ZM172.7,35.8c-3.7,0-6.7-3-6.7-6.8s3-6.8,6.7-6.8,6.7,3,6.7,6.7h0c0,3.9-3,6.9-6.7,6.9h0ZM188.5,39.8h4.1v-21.4h-4.1v21.4h0ZM218.7,29c0-6-4.8-10.8-10.8-10.8s-10.8,4.8-10.8,10.8,4.8,10.8,10.8,10.8,4.9-1,6.7-2.4v2c0,3.7-3,6.7-6.7,6.7v4.1c5.9,0,10.8-4.8,10.8-10.8v-10.4h0ZM214.6,29h0c0,3.8-3,6.7-6.7,6.7s-6.7-3-6.7-6.7,3-6.7,6.7-6.7,6.7,3,6.7,6.7h0ZM223.7,39.8h4.1v-21.4h-4.1v21.4h0ZM237.2,29v-6.4h6.7v-4.1h-6.7v-4.1h-4.1v14.6c0,6,4.8,10.8,10.8,10.8v-4c-3.7,0-6.7-3.1-6.7-6.8h0ZM270.5,35.7c-2-1-3.3-3.4-3.3-5.8v-.9c0-6-4.8-10.8-10.8-10.8s-10.8,4.8-10.8,10.8,4.8,10.9,10.8,10.9,6.6-1.6,8.6-4.2c1.3,1.9,3.1,3.8,5.5,4.2v-4.1h0ZM263.1,29c0,3.8-2.9,6.8-6.7,6.8s-6.7-3-6.7-6.8,3-6.7,6.7-6.7,6.7,3,6.7,6.7h0ZM275.7,29.1V7.4h-4.1v21.6c0,6,4.9,10.8,10.9,10.8v-4.1c-3.7,0-6.8-3-6.8-6.7Z"/>
    <path class="st0" d="M193.3,12.3c0-1.5-1.2-2.8-2.8-2.8s-2.8,1.2-2.8,2.8,1.2,2.8,2.8,2.8,2.8-1.2,2.8-2.8h0ZM228.5,12.3c0-1.5-1.2-2.8-2.8-2.8s-2.8,1.2-2.8,2.8,1.2,2.8,2.8,2.8,2.8-1.2,2.8-2.8Z"/>
  </g>
</svg>