<?xml version="1.0" encoding="UTF-8"?><svg id="Camada_2" xmlns="http://www.w3.org/2000/svg" viewBox="0 0 1434.01 607.88"><defs><style>.cls-1{stroke:#fff;stroke-miterlimit:10;}.cls-1,.cls-2{fill:#fff;}.cls-2{stroke-width:0px;}</style></defs><g id="Camada_1-2"><rect class="cls-2" x="182.38" width="41.15" height="607.88"/><rect class="cls-2" x="111.71" y="69.6" width="41.15" height="395.71"/><rect class="cls-2" x="253.06" y="105.57" width="41.15" height="430.44"/><rect class="cls-2" x="182.8" y="-6.82" width="41.15" height="265.93" transform="translate(77.23 329.52) rotate(-90)"/><rect class="cls-2" x="126.53" y="48.71" width="41.15" height="294.21" transform="translate(-48.71 342.92) rotate(-90)"/><rect class="cls-2" x="238.3" y="120.35" width="41.15" height="294.21" transform="translate(-8.58 526.34) rotate(-90)"/><rect class="cls-2" x="182.29" y="206.85" width="41.15" height="264.5" transform="translate(-136.23 541.96) rotate(-90)"/><path class="cls-2" d="m515.15,257.7h-25.89l-4.52,14.64h-20.18l28.74-78.36h17.76l28.95,78.36h-20.29l-4.58-14.64Zm-21.37-14.58h16.85l-8.45-27.18-8.4,27.18Z"/><path class="cls-2" d="m636.56,245.8c-.25,5.45-1.72,10.27-4.41,14.45-2.69,4.18-6.47,7.42-11.33,9.71-4.86,2.3-10.41,3.44-16.66,3.44-10.3,0-18.41-3.35-24.33-10.06-5.92-6.71-8.88-16.18-8.88-28.42v-3.87c0-7.68,1.34-14.4,4.01-20.16,2.67-5.76,6.52-10.21,11.54-13.35,5.02-3.14,10.84-4.71,17.44-4.71,9.51,0,17.15,2.5,22.93,7.51,5.78,5,9.06,11.9,9.85,20.69h-18.84c-.14-4.77-1.35-8.2-3.61-10.28-2.26-2.08-5.7-3.12-10.33-3.12s-8.14,1.76-10.33,5.27c-2.19,3.52-3.34,9.13-3.44,16.85v5.54c0,8.36,1.05,14.33,3.15,17.92,2.1,3.59,5.71,5.38,10.84,5.38,4.34,0,7.66-1.02,9.96-3.07s3.52-5.29,3.66-9.74h18.78Z"/><path class="cls-2" d="m690.01,257.7h-25.89l-4.52,14.64h-20.18l28.74-78.36h17.76l28.95,78.36h-20.29l-4.58-14.64Zm-21.37-14.58h16.85l-8.45-27.18-8.4,27.18Z"/><path class="cls-2" d="m760.99,251.51c0-2.76-.98-4.91-2.93-6.46-1.96-1.54-5.39-3.14-10.31-4.79-4.92-1.65-8.93-3.25-12.05-4.79-10.15-4.99-15.23-11.84-15.23-20.56,0-4.34,1.26-8.17,3.79-11.49,2.53-3.32,6.11-5.9,10.74-7.75,4.63-1.85,9.83-2.77,15.61-2.77s10.68,1.01,15.15,3.01c4.47,2.01,7.94,4.87,10.41,8.58,2.48,3.71,3.71,7.96,3.71,12.73h-18.84c0-3.19-.98-5.67-2.93-7.43-1.96-1.76-4.6-2.64-7.94-2.64s-6.04.75-7.99,2.23c-1.96,1.49-2.93,3.38-2.93,5.68,0,2.01,1.08,3.83,3.23,5.46,2.15,1.63,5.94,3.32,11.36,5.06,5.42,1.74,9.87,3.62,13.35,5.62,8.47,4.88,12.7,11.61,12.7,20.18,0,6.85-2.58,12.24-7.75,16.15-5.17,3.91-12.25,5.87-21.26,5.87-6.35,0-12.1-1.14-17.25-3.42-5.15-2.28-9.02-5.4-11.63-9.36-2.6-3.96-3.9-8.53-3.9-13.7h18.95c0,4.2,1.08,7.29,3.26,9.28s5.7,2.99,10.58,2.99c3.12,0,5.59-.67,7.4-2.02,1.81-1.35,2.72-3.24,2.72-5.68Z"/><path class="cls-2" d="m834.08,257.7h-25.89l-4.52,14.64h-20.18l28.74-78.36h17.76l28.95,78.36h-20.29l-4.58-14.64Zm-21.37-14.58h16.85l-8.45-27.18-8.4,27.18Z"/><path class="cls-2" d="m892.1,272.34v-78.36h25.24c6.92,0,13.15,1.57,18.68,4.71,5.53,3.14,9.84,7.57,12.94,13.29,3.1,5.72,4.67,12.14,4.71,19.24v3.61c0,7.18-1.52,13.61-4.55,19.29-3.03,5.69-7.3,10.14-12.81,13.35-5.51,3.21-11.65,4.84-18.43,4.87h-25.78Zm18.89-63.78v49.25h6.57c5.42,0,9.58-1.93,12.49-5.79,2.91-3.86,4.36-9.59,4.36-17.2v-3.39c0-7.57-1.45-13.28-4.36-17.11-2.91-3.84-7.14-5.76-12.7-5.76h-6.35Z"/><path class="cls-2" d="m1007.86,257.7h-25.89l-4.52,14.64h-20.18l28.74-78.36h17.76l28.95,78.36h-20.29l-4.58-14.64Zm-21.37-14.58h16.85l-8.45-27.18-8.4,27.18Z"/><path class="cls-2" d="m1095,244.62h-10.23v27.72h-18.89v-78.36h30.84c9.29,0,16.56,2.06,21.8,6.18,5.24,4.12,7.86,9.95,7.86,17.47,0,5.45-1.1,9.96-3.31,13.55-2.21,3.58-5.66,6.49-10.36,8.71l16.36,31.64v.81h-20.24l-13.83-27.72Zm-10.23-14.53h11.95c3.59,0,6.29-.94,8.1-2.83,1.81-1.89,2.72-4.52,2.72-7.9s-.91-6.03-2.74-7.96c-1.83-1.92-4.52-2.89-8.07-2.89h-11.95v21.58Z"/><path class="cls-2" d="m1204.15,234.77c0,7.64-1.42,14.41-4.25,20.29-2.83,5.88-6.86,10.41-12.08,13.59-5.22,3.18-11.17,4.76-17.84,4.76s-12.59-1.53-17.76-4.6c-5.17-3.07-9.2-7.45-12.08-13.16-2.89-5.71-4.41-12.25-4.55-19.64v-4.41c0-7.68,1.41-14.45,4.23-20.32,2.82-5.87,6.85-10.4,12.11-13.59,5.26-3.19,11.24-4.79,17.95-4.79s12.56,1.58,17.76,4.74c5.2,3.16,9.25,7.65,12.14,13.48,2.89,5.83,4.35,12.51,4.39,20.05v3.61Zm-19.21-3.28c0-7.78-1.3-13.7-3.9-17.73-2.6-4.04-6.32-6.05-11.17-6.05-9.47,0-14.48,7.1-15.02,21.31l-.05,5.76c0,7.68,1.27,13.58,3.82,17.71,2.55,4.13,6.33,6.19,11.36,6.19s8.45-2.03,11.03-6.08c2.58-4.05,3.89-9.88,3.93-17.49v-3.61Z"/><path class="cls-2" d="m1277.29,245.8c-.25,5.45-1.72,10.27-4.41,14.45-2.69,4.18-6.47,7.42-11.33,9.71-4.86,2.3-10.41,3.44-16.66,3.44-10.3,0-18.41-3.35-24.33-10.06-5.92-6.71-8.88-16.18-8.88-28.42v-3.87c0-7.68,1.34-14.4,4.01-20.16,2.67-5.76,6.52-10.21,11.54-13.35,5.02-3.14,10.84-4.71,17.44-4.71,9.51,0,17.15,2.5,22.93,7.51,5.78,5,9.06,11.9,9.85,20.69h-18.84c-.14-4.77-1.35-8.2-3.61-10.28-2.26-2.08-5.7-3.12-10.33-3.12s-8.14,1.76-10.33,5.27c-2.19,3.52-3.34,9.13-3.44,16.85v5.54c0,8.36,1.05,14.33,3.15,17.92,2.1,3.59,5.71,5.38,10.84,5.38,4.34,0,7.66-1.02,9.96-3.07s3.52-5.29,3.66-9.74h18.78Z"/><path class="cls-2" d="m1351.72,272.34h-18.78v-32.72h-27.82v32.72h-18.89v-78.36h18.89v31.11h27.82v-31.11h18.78v78.36Z"/><path class="cls-2" d="m1409.14,257.7h-25.89l-4.52,14.64h-20.18l28.74-78.36h17.76l28.95,78.36h-20.29l-4.58-14.64Zm-21.37-14.58h16.85l-8.45-27.18-8.4,27.18Z"/><path class="cls-1" d="m522.17,350.83h-24.53v66.46h-6.05v-66.46h-24.48v-5.11h55.06v5.11Z"/><path class="cls-1" d="m587.61,397.19h-32.49l-7.37,20.11h-6.34l27.09-71.58h5.75l27.09,71.58h-6.29l-7.42-20.11Zm-30.63-5.11h28.71l-14.35-38.98-14.35,38.98Z"/><path class="cls-1" d="m673.2,350.83h-24.53v66.46h-6.05v-66.46h-24.48v-5.11h55.06v5.11Z"/><path class="cls-1" d="m753.19,345.72v48.86c-.03,4.82-1.1,9.01-3.2,12.58-2.1,3.57-5.06,6.32-8.87,8.23-3.82,1.92-8.2,2.88-13.15,2.88-7.54,0-13.58-2.06-18.12-6.17-4.54-4.11-6.89-9.81-7.06-17.08v-49.31h6v48.42c0,6.03,1.72,10.71,5.16,14.03,3.44,3.33,8.11,4.99,14.01,4.99s10.56-1.67,13.99-5.01c3.42-3.34,5.14-8,5.14-13.96v-48.47h6.09Z"/><path class="cls-1" d="m826.73,397.19h-32.49l-7.37,20.11h-6.34l27.09-71.58h5.75l27.09,71.58h-6.29l-7.42-20.11Zm-30.63-5.11h28.71l-14.35-38.98-14.35,38.98Z"/><path class="cls-1" d="m876.14,388.14v29.15h-6.05v-71.58h24.38c7.44,0,13.31,1.9,17.62,5.7,4.31,3.8,6.46,9.03,6.46,15.68s-2.07,11.91-6.22,15.56c-4.15,3.65-10.15,5.48-18.02,5.48h-18.19Zm0-5.11h18.34c5.87,0,10.34-1.39,13.42-4.19,3.08-2.79,4.62-6.68,4.62-11.67s-1.53-8.9-4.6-11.84c-3.06-2.94-7.42-4.44-13.05-4.5h-18.73v32.2Z"/><path class="cls-1" d="m990.74,382.98h-33.48v29.2h38.49v5.11h-44.54v-71.58h44.29v5.11h-38.25v27.04h33.48v5.11Zm-12.24-56.98h7.13l-11.36,13.76-5.16-.02,9.39-13.74Z"/></g></svg>