<?xml version="1.0" encoding="UTF-8"?><svg id="Camada_2" xmlns="http://www.w3.org/2000/svg" xmlns:xlink="http://www.w3.org/1999/xlink" viewBox="0 0 282.51 50.21"><defs><linearGradient id="GradientFill_1" x1="26.79" y1="25.96" x2="36.96" y2="6.88" gradientUnits="userSpaceOnUse"><stop offset="0" stop-color="#e25425"/><stop offset="1" stop-color="#e63e26"/></linearGradient><linearGradient id="GradientFill_2" x1="15.82" y1="9.1" x2="48.37" y2="9.1" gradientUnits="userSpaceOnUse"><stop offset="0" stop-color="#f15f22"/><stop offset="1" stop-color="#f58020"/></linearGradient></defs><g id="Camada_1-2"><path d="M34.13,34.16c3.47-.09,8.16-.5,10.34-.96,2.18-.46,3.54-.99,3.96-1.47C51.88,16.9,43.61.18,26.75.18h-10.93v13.51l9.29.02c11.15,0,13.43,14.5,9.02,20.46Z" fill="url(#GradientFill_1)" fill-rule="evenodd"/><path d="M48.37,18.02C45.96,8.18,38.41.18,26.75.18h-10.93v13.51h9.29c8.63,0,20.67,1.75,23.26,4.33Z" fill="url(#GradientFill_2)" fill-rule="evenodd"/><path d="M0,0h13.66c0,8.27-.03,23.83-.03,32.1,0,2.05,1.67,3.63,3.63,3.63,3.67.14,14.83.26,18.6.18l.73-.03.39-.02.98-.06.36-.02.52-.04.27-.02.69-.06.37-.03,1.34-.14.54-.07.35-.05,1.03-.16.23-.04.29-.05.29-.06h0s.18-.04.18-.04l.11-.02.3-.07.21-.05h0s.21-.05.21-.05l.06-.02.41-.12.17-.05h0s.1-.03.1-.03l.42-.15.06-.02.12-.05h0s.02,0,.02,0h0s.14-.06.14-.06l.28-.13h0s0,0,0,0h0s.06-.03.06-.03h0s.03-.02.03-.02h0s0,0,0,0h0s.05-.03.05-.03h0s.02-.01.02-.01h0s.02-.01.02-.01h0s.05-.03.05-.03l.18-.11h0s.04-.03.04-.03l.02-.02h0s.01-.01.01-.01h0s.01-.01.01-.01h0s.02-.01.02-.01h0s.02-.01.02-.01h0s.05-.04.05-.04h0s.02-.02.02-.02h0s.13-.12.13-.12h0s0,0,0,0h0s0,0,0,0l.04-.04h0l.02-.02h0s0,0,0,0v-.02h.01v-.02h.01v-.02h.01v-.02h.01l.02-.02h0l.02-.02h0s0-.01,0-.01h0s0,0,0,0h0s.04-.07.04-.07h0c-.03.06-.06.14-.08.21h0l-.03.07h0l-.02.04h0l-.02.04h0l-.02.04h0l-.07.17h0v.02h0s0,0,0,0h0s0,.01,0,.01h0s0,0,0,0h0s0,.01,0,.01h0s0,0,0,0h0s0,0,0,0h0s0,0,0,0h0s0,.01,0,.01h0s0,0,0,0h0s0,.01,0,.01h0s0,0,0,0v.02h0s0,.01,0,.01h0s0,0,0,0v.02h0s0,0,0,0h0s0,.01,0,.01h0s0,0,0,0h0s0,.01,0,.01h0s0,0,0,0h0s0,.01,0,.01h0s0,0,0,0h0s0,0,0,0h0s0,0,0,0v.02h-.01s0,.02,0,.02h0v.02h0v.02h0s0,0,0,0h0s0,.02,0,.02h0v.02h0l-.05.12h0v.02h-.01v.02h0v.02h0s0,0,0,0v.02h0s0,0,0,0v.02h0s0,0,0,0v.02h0s0,0,0,0h0s0,0,0,0h0s0,.01,0,.01h0s0,0,0,0h0s0,0,0,0h0s0,.01,0,.01h0s0,0,0,0h0s0,0,0,0h0s0,.01,0,.01h0s0,0,0,0h0s0,0,0,0h0s0,.01,0,.01h0s0,0,0,0h0s0,0,0,0h0s0,.02,0,.02h0s0,0,0,0h0s0,.02,0,.02h0s0,0,0,0v.02h0s0,0,0,0v.02h-.01v.02h-.01s0,0,0,0v.02h-.01l-.05.12h0v.03h-.02s0,0,0,0h0s0,0,0,0v.02h-.01s0,0,0,0h0s0,0,0,0v.02h-.01s0,0,0,0h0s0,0,0,0v.02h-.01s0,0,0,0h0s0,0,0,0h0s0,0,0,0h0s0,0,0,0h0s0,0,0,0h0s0,0,0,0h0s0,0,0,0h0s0,0,0,0h0s0,.02,0,.02h0s0,0,0,0h0s0,0,0,0h0s0,0,0,0v.02h-.01s0,0,0,0h0s0,0,0,0h0s0,0,0,0v.02h-.01s0,0,0,0h0s0,0,0,0l-.02.04h0l-.08.17h0s0,0,0,0h0s0,0,0,0h0s0,0,0,0h0s0,0,0,0h0s0,0,0,0h0s0,0,0,0h0s0,0,0,0l-.02.04h0s0,.01,0,.01h0s0,0,0,0h0s0,0,0,0h0s0,0,0,0h0s0,0,0,0h0s0,0,0,0h0s0,0,0,0h0s0,0,0,0h0s0,0,0,0h0s0,.03,0,.03h0s0,0,0,0h0s0,0,0,0h0s0,0,0,0h0s0,0,0,0h0s0,0,0,0h0s0,0,0,0h0s0,0,0,0h0s0,0,0,0h0s0,0,0,0h0s0,0,0,0h0s0,0,0,0l-.05.1-.03.06-.07.13h0s0,0,0,0h0s0,0,0,0h0s0,0,0,0h0s0,0,0,0h0s0,0,0,0h0s0,0,0,0h0s0,0,0,0h0s0,0,0,0h0s0,0,0,0h0s0,0,0,0h0s0,0,0,0h0s0,0,0,0h0s0,0,0,0h0s0,0,0,0h0s0,0,0,0l-.02.04h0s0,0,0,0h0s0,0,0,0h0s0,0,0,0h0s0,0,0,0h0s0,0,0,0h0s0,0,0,0h0s0,0,0,0h0s0,0,0,0h0s0,0,0,0h0s0,0,0,0l-.1.19h0s0,0,0,0l-.02.04h0s0,0,0,0h0s0,0,0,0v.02h-.02s0,0,0,0h0s0,0,0,0h0s0,0,0,0h0s0,0,0,0v.02h-.01s0,0,0,0h0s0,0,0,0h0s0,0,0,0h0s0,0,0,0v.02h-.01s0,0,0,0h0s0,0,0,0h0s0,0,0,0v.02h-.02s0,0,0,0h0s0,0,0,0h0s0,0,0,0v.02h-.01s0,0,0,0h0s0,0,0,0h0s0,0,0,0v.02h-.02s0,0,0,0h0s0,0,0,0l-.02.03h0l-.05.1h0v.02h-.01l-.02.03h0v.02h-.02s0,0,0,0v.02h-.01s0,0,0,0v.02h-.01s0,0,0,0h0s0,0,0,0h0s0,.01,0,.01h0s0,0,0,0h0s0,0,0,0h0s0,.01,0,.01h0s0,0,0,0h0s0,0,0,0h0s0,.01,0,.01h0s0,0,0,0h0s0,0,0,0h0s0,.01,0,.01h0s0,0,0,0h0s0,0,0,0v.02h-.01s0,0,0,0v.02h-.01s0,0,0,0v.02h-.01s0,0,0,0v.02h-.01s0,0,0,0v.02h-.01s0,.02,0,.02h0v.02h-.01l-.06.1h0v.02h-.01s-.01.02-.01.02h0v.02h-.01v.02h0v.02h-.01s0,.02,0,.02h0v.02h-.01s0,0,0,0h0s0,0,0,0h0s0,0,0,0h0s0,.01,0,.01h0s0,0,0,0h0s0,.01,0,.01h0s0,0,0,0h0s0,.01,0,.01h0s0,0,0,0h0s0,0,0,0h0s0,0,0,0h0s0,0,0,0h0s0,0,0,0h0s0,.01,0,.01h0s0,0,0,0h0s0,.01,0,.01h0s0,0,0,0h0s0,0,0,0h0s0,0,0,0h0s0,.01,0,.01h0s0,.02,0,.02h0v.02h-.01v.02h0v.02h-.01l-.07.11h0v.02h-.02s0,.01,0,.01h0s0,.02,0,.02h0s0,.01,0,.01h0s0,0,0,0h0s0,.01,0,.01h0s0,.01,0,.01h0s0,.02,0,.02h0s0,.01,0,.01h0s0,.01,0,.01h0s0,0,0,0h0s0,.01,0,.01h0s0,.01,0,.01h0s0,0,0,0h0s0,0,0,0h0s0,.01,0,.01h0s0,0,0,0h0s0,.01,0,.01h0s0,.01,0,.01h0s0,.01,0,.01h0s0,0,0,0h0s0,.01,0,.01h0s0,0,0,0h0s0,0,0,0h0s0,0,0,0h0s0,.01,0,.01h0s0,.02,0,.02h0s0,.01,0,.01h0s0,.01,0,.01h0s0,.02,0,.02h0s0,.01,0,.01l-.02.03-.07.11h0s0,.01,0,.01h0s0,.01,0,.01h0s0,.01,0,.01h0s0,0,0,0h0s0,.01,0,.01h0s0,.01,0,.01h0s0,0,0,0h0s0,0,0,0h0s0,0,0,0h0s0,0,0,0h0s0,0,0,0h0s0,.01,0,.01h0s0,.01,0,.01h0s0,.01,0,.01h0s0,0,0,0h0s0,.01,0,.01h0s0,.01,0,.01h0s0,0,0,0h0s0,.01,0,.01h0s0,0,0,0h0s0,.01,0,.01h0s0,0,0,0h0s0,0,0,0h0s0,.01,0,.01h0s0,.01,0,.01h0s0,0,0,0h0s0,.01,0,.01h0s0,0,0,0h0s-.09.14-.09.14h0l-.03.04h0s0,.01,0,.01h0s0,.01,0,.01h0s0,.01,0,.01h0s0,.01,0,.01h0s0,.01,0,.01h0s0,0,0,0h0s0,.01,0,.01h0s0,.01,0,.01h0s0,0,0,0h0s0,.01,0,.01h0s0,.01,0,.01h0s0,0,0,0h0s0,.01,0,.01h0s0,0,0,0h0s0,0,0,0h0s0,.01,0,.01h0s0,.01,0,.01h0s0,0,0,0h0s0,0,0,0h0s0,0,0,0h0s0,.01,0,.01h0s0,.01,0,.01h0s0,0,0,0h0s0,0,0,0h0s0,.01,0,.01h0s0,0,0,0h0s0,.01,0,.01h0s0,.01,0,.01h0s0,.01,0,.01h0s0,0,0,0l-.02.02h0s-.02.04-.02.04h0l-.07.09h0l-.02.02h0s0,.01,0,.01h0s0,.01,0,.01h0s0,.01,0,.01h0s0,.01,0,.01h0s0,0,0,0h0s0,.01,0,.01h0s0,0,0,0h0s0,0,0,0h0s0,.01,0,.01h0s0,0,0,0h0s0,.01,0,.01h0s0,.01,0,.01h0s0,0,0,0h0s0,.01,0,.01h0s0,.01,0,.01h0s0,0,0,0h0s0,0,0,0h0s0,.01,0,.01h0s0,.01,0,.01h0s0,0,0,0h0s0,0,0,0h0s0,.01,0,.01h0s0,.01,0,.01h0s0,.01,0,.01h0s0,0,0,0h0s0,0,0,0h0s0,.01,0,.01h0s0,.01,0,.01h0s0,.02,0,.02h-.01s0,.01,0,.01l-.03.04-.06.08h-.01s0,.01,0,.01h0s0,.01,0,.01h0s0,.01,0,.01h0s0,.01,0,.01h0s0,.01,0,.01h0s0,0,0,0h0s0,.01,0,.01h0s0,0,0,0h0s0,.01,0,.01h0s0,0,0,0h0s0,0,0,0h0s0,0,0,0h0s0,.01,0,.01h0s0,.01,0,.01h0s0,0,0,0h0s0,.01,0,.01h0s0,0,0,0h0s0,.01,0,.01h0s0,0,0,0h0s0,.01,0,.01h0s0,0,0,0h0s0,.01,0,.01h0s0,0,0,0h0s0,.01,0,.01h0s0,.01,0,.01h0s0,0,0,0h0s0,.01,0,.01h0s0,0,0,0h0s0,.01,0,.01h0s0,.01,0,.01h0s0,.01,0,.01v.02h-.02s0,.01,0,.01h0s0,.01,0,.01l-.07.09h0l-.04.05h0v.02h-.01v.02h-.02s0,.01,0,.01h0s0,0,0,0h0s0,.01,0,.01h0s0,0,0,0h0s0,.01,0,.01h0s0,0,0,0h0s0,.01,0,.01h0s0,0,0,0h0s0,.01,0,.01h0s0,0,0,0h0s0,0,0,0h0s0,0,0,0h0s0,0,0,0h0s0,.01,0,.01h0s0,0,0,0h0s0,0,0,0h0s0,0,0,0h0s0,0,0,0h0s0,0,0,0h0s0,.01,0,.01h0s0,0,0,0h0s0,.01,0,.01h0s0,0,0,0h0s0,.01,0,.01h0s0,0,0,0v.02h-.01v.02h-.01v.02h-.01v.02h-.01v.02h-.01l-.12.15h0l-.02.02h0v.02h-.01l-.02.02h0l-.02.02h0l-.02.02h0l-.02.02h0c0,.21-2.7,2.77-3.05,3.07-2.49,2.11-5.37,3.72-8.47,4.72-3.59.96-9.79.92-15.07.92C6.9,49.35,0,40.29,0,32.1,0,21.65,0,10.45,0,0Z" fill="#3767b1" fill-rule="evenodd"/><path d="M66.22,29.07V7.45h-4.06v21.62c0,6.01,4.89,10.85,10.85,10.85v-4.11c-3.72,0-6.79-2.98-6.79-6.74h0ZM91.03,29.11c0,3.66-2.98,6.66-6.79,6.66-1.12,0-2.16-.3-3.11-.78l12.06-12.19c-1.9-2.77-5.14-4.63-8.95-4.63-5.92,0-10.72,4.81-10.72,10.94s4.8,10.72,10.72,10.72,10.85-4.84,10.85-10.72h-4.06ZM77.59,29.11c0-3.9,2.94-6.92,6.66-6.92,1.17,0,2.25.3,3.11.74l-9.08,9.16c-.43-.91-.69-1.95-.69-2.98h0ZM101.67,29.07V7.45h-4.06v21.62c0,6.01,4.89,10.85,10.85,10.85v-4.11c-3.72,0-6.79-2.98-6.79-6.74h0ZM113.73,29.07V7.45h-4.06v21.62c0,6.01,4.89,10.85,10.85,10.85v-4.11c-3.72,0-6.79-2.98-6.79-6.74h0ZM145.9,35.68c-1.99-1.04-3.33-3.38-3.33-5.82v-.91c0-5.99-4.76-10.79-10.76-10.79s-10.81,4.8-10.81,10.79,4.84,10.87,10.81,10.87c3.5,0,6.61-1.6,8.6-4.24,1.3,1.9,3.11,3.76,5.49,4.15v-4.06h0ZM138.5,28.96c0,3.78-2.94,6.81-6.7,6.81s-6.74-3.03-6.74-6.81,2.98-6.68,6.74-6.68,6.7,2.95,6.7,6.68h0ZM179.49,7.32v13.23c-1.82-1.47-4.15-2.38-6.74-2.38-5.97,0-10.81,4.84-10.81,10.79s4.84,10.87,10.81,10.87,10.81-4.8,10.81-10.87V7.32h-4.06ZM172.74,35.77c-3.72,0-6.74-2.99-6.74-6.81s3.03-6.77,6.74-6.77,6.74,2.99,6.74,6.72v.04c0,3.82-2.98,6.81-6.74,6.81h0ZM188.52,39.83h4.06v-21.36h-4.06v21.36h0ZM218.66,29.03c0-5.97-4.84-10.76-10.81-10.76s-10.77,4.8-10.77,10.76,4.84,10.81,10.77,10.81c2.55,0,4.89-.95,6.74-2.42v2.03c-.04,3.72-3.03,6.7-6.74,6.7v4.06c5.92,0,10.77-4.84,10.81-10.77v-10.42h0ZM214.59,29.03v.04c-.04,3.72-3.03,6.7-6.74,6.7s-6.7-2.98-6.7-6.74,2.98-6.74,6.7-6.74,6.74,2.98,6.74,6.74h0ZM223.67,39.83h4.06v-21.36h-4.06v21.36h0ZM237.25,29v-6.42h6.74v-4.11h-6.74v-4.11h-4.06v14.63c0,6.03,4.8,10.83,10.81,10.83v-4.02c-3.72-.04-6.74-3.08-6.74-6.81h0ZM270.45,35.68c-1.99-1.04-3.33-3.38-3.33-5.82v-.91c0-5.99-4.76-10.79-10.77-10.79s-10.81,4.8-10.81,10.79,4.84,10.87,10.81,10.87c3.5,0,6.61-1.6,8.6-4.24,1.3,1.9,3.11,3.76,5.49,4.15v-4.06h0ZM263.06,28.96c0,3.78-2.94,6.81-6.7,6.81s-6.74-3.03-6.74-6.81,2.98-6.68,6.74-6.68,6.7,2.95,6.7,6.68h0ZM275.72,29.07V7.45h-4.06v21.62c0,6.01,4.89,10.85,10.85,10.85v-4.11c-3.72,0-6.79-2.98-6.79-6.74Z" fill="#3767b1" fill-rule="evenodd"/><path d="M193.32,12.34c0-1.51-1.25-2.77-2.77-2.77s-2.77,1.25-2.77,2.77,1.25,2.77,2.77,2.77,2.77-1.25,2.77-2.77h0ZM228.47,12.34c0-1.51-1.25-2.77-2.77-2.77s-2.77,1.25-2.77,2.77,1.25,2.77,2.77,2.77,2.77-1.25,2.77-2.77Z" fill="#f15f26" fill-rule="evenodd"/></g></svg>